<svg width="120" height="23" viewBox="0 0 120 23" fill="none" xmlns="http://www.w3.org/2000/svg">
<path d="M3.69034 22.9091C3.23011 22.9091 2.7983 22.8722 2.39489 22.7983C1.99716 22.7301 1.66761 22.642 1.40625 22.5341L2.22443 19.8239C2.65057 19.9545 3.03409 20.0256 3.375 20.0369C3.72159 20.0483 4.01989 19.9688 4.26989 19.7983C4.52557 19.6278 4.73295 19.3381 4.89205 18.929L5.10511 18.375L0.409091 4.90909H4.22727L6.9375 14.5227H7.07386L9.80966 4.90909H13.6534L8.56534 19.4148C8.32102 20.1193 7.98864 20.733 7.56818 21.2557C7.15341 21.7841 6.62784 22.1903 5.99148 22.4744C5.35511 22.7642 4.58807 22.9091 3.69034 22.9091ZM21.0043 18.2557C19.6804 18.2557 18.5355 17.9744 17.5696 17.4119C16.6094 16.8437 15.8679 16.054 15.3452 15.0426C14.8224 14.0256 14.5611 12.8466 14.5611 11.5057C14.5611 10.1534 14.8224 8.97159 15.3452 7.96023C15.8679 6.94318 16.6094 6.15341 17.5696 5.59091C18.5355 5.02273 19.6804 4.73864 21.0043 4.73864C22.3281 4.73864 23.4702 5.02273 24.4304 5.59091C25.3963 6.15341 26.1406 6.94318 26.6634 7.96023C27.1861 8.97159 27.4474 10.1534 27.4474 11.5057C27.4474 12.8466 27.1861 14.0256 26.6634 15.0426C26.1406 16.054 25.3963 16.8437 24.4304 17.4119C23.4702 17.9744 22.3281 18.2557 21.0043 18.2557ZM21.0213 15.4432C21.6236 15.4432 22.1264 15.2727 22.5298 14.9318C22.9332 14.5852 23.2372 14.1136 23.4418 13.517C23.652 12.9205 23.7571 12.2415 23.7571 11.4801C23.7571 10.7188 23.652 10.0398 23.4418 9.44318C23.2372 8.84659 22.9332 8.375 22.5298 8.02841C22.1264 7.68182 21.6236 7.50852 21.0213 7.50852C20.4134 7.50852 19.902 7.68182 19.4872 8.02841C19.0781 8.375 18.7685 8.84659 18.5582 9.44318C18.3537 10.0398 18.2514 10.7188 18.2514 11.4801C18.2514 12.2415 18.3537 12.9205 18.5582 13.517C18.7685 14.1136 19.0781 14.5852 19.4872 14.9318C19.902 15.2727 20.4134 15.4432 21.0213 15.4432ZM38.2031 12.4261V4.90909H41.8338V18H38.348V15.6222H38.2116C37.9162 16.3892 37.4247 17.0057 36.7372 17.4716C36.0554 17.9375 35.223 18.1705 34.2401 18.1705C33.3651 18.1705 32.5952 17.9716 31.9304 17.5739C31.2656 17.1761 30.7457 16.6108 30.3707 15.8778C30.0014 15.1449 29.8139 14.267 29.8082 13.2443V4.90909H33.4389V12.5966C33.4446 13.3693 33.652 13.9801 34.0611 14.429C34.4702 14.8778 35.0185 15.1023 35.706 15.1023C36.1435 15.1023 36.5526 15.0028 36.9332 14.804C37.3139 14.5994 37.6207 14.2983 37.8537 13.9006C38.0923 13.5028 38.2088 13.0114 38.2031 12.4261ZM44.7379 18V4.90909H48.2578V7.19318H48.3942C48.6328 6.38068 49.0334 5.76705 49.5959 5.35227C50.1584 4.93182 50.8061 4.72159 51.5391 4.72159C51.7209 4.72159 51.9169 4.73295 52.1271 4.75568C52.3374 4.77841 52.522 4.80966 52.6811 4.84943V8.07102C52.5107 8.01989 52.2749 7.97443 51.9737 7.93466C51.6726 7.89489 51.397 7.875 51.147 7.875C50.6129 7.875 50.1357 7.99148 49.7152 8.22443C49.3004 8.4517 48.9709 8.76989 48.7266 9.17898C48.4879 9.58807 48.3686 10.0597 48.3686 10.5938V18H44.7379Z" fill="black"/>
<path d="M54.6264 18V0.545454H66.3878V3.58807H58.3168V7.74716H65.7827V10.7898H58.3168V14.9574H66.4219V18H54.6264ZM81.4581 4.90909L76.8814 18H72.7905L68.2138 4.90909H72.049L74.7678 14.2756H74.9041L77.6143 4.90909H81.4581ZM88.8601 18.2557C87.5135 18.2557 86.3544 17.983 85.3828 17.4375C84.4169 16.8864 83.6726 16.108 83.1499 15.1023C82.6271 14.0909 82.3658 12.8949 82.3658 11.5142C82.3658 10.1676 82.6271 8.9858 83.1499 7.96875C83.6726 6.9517 84.4084 6.15909 85.3572 5.59091C86.3118 5.02273 87.4311 4.73864 88.7152 4.73864C89.5788 4.73864 90.3828 4.87784 91.1271 5.15625C91.8771 5.42898 92.5305 5.84091 93.0874 6.39205C93.6499 6.94318 94.0874 7.63636 94.3999 8.47159C94.7124 9.30114 94.8686 10.2727 94.8686 11.3864V12.3835H83.8146V10.1335H91.451C91.451 9.6108 91.3374 9.14773 91.1101 8.74432C90.8828 8.34091 90.5675 8.02557 90.1641 7.7983C89.7663 7.56534 89.3033 7.44886 88.7749 7.44886C88.2237 7.44886 87.7351 7.5767 87.3089 7.83239C86.8885 8.08239 86.5589 8.42045 86.3203 8.84659C86.0817 9.26705 85.9595 9.7358 85.9538 10.2528V12.392C85.9538 13.0398 86.0732 13.5994 86.3118 14.071C86.5561 14.5426 86.8999 14.9062 87.343 15.1619C87.7862 15.4176 88.3118 15.5455 88.9197 15.5455C89.3232 15.5455 89.6925 15.4886 90.0277 15.375C90.3629 15.2614 90.6499 15.0909 90.8885 14.8636C91.1271 14.6364 91.3089 14.358 91.4339 14.0284L94.7919 14.25C94.6214 15.0568 94.272 15.7614 93.7436 16.3636C93.2209 16.9602 92.5447 17.4261 91.7152 17.7614C90.8913 18.0909 89.9396 18.2557 88.8601 18.2557ZM100.869 10.4318V18H97.2379V4.90909H100.698V7.21875H100.852C101.141 6.45739 101.627 5.85511 102.309 5.41193C102.991 4.96307 103.817 4.73864 104.789 4.73864C105.698 4.73864 106.491 4.9375 107.167 5.33523C107.843 5.73295 108.369 6.30114 108.744 7.03977C109.119 7.77273 109.306 8.64773 109.306 9.66477V18H105.675V10.3125C105.681 9.51136 105.477 8.88636 105.062 8.4375C104.647 7.98295 104.076 7.75568 103.349 7.75568C102.86 7.75568 102.428 7.8608 102.053 8.07102C101.684 8.28125 101.394 8.58807 101.184 8.99148C100.979 9.3892 100.874 9.86932 100.869 10.4318ZM119.131 4.90909V7.63636H111.247V4.90909H119.131ZM113.037 1.77273H116.668V13.9773C116.668 14.3125 116.719 14.5739 116.821 14.7614C116.923 14.9432 117.065 15.071 117.247 15.1449C117.435 15.2187 117.651 15.2557 117.895 15.2557C118.065 15.2557 118.236 15.2415 118.406 15.2131C118.577 15.179 118.707 15.1534 118.798 15.1364L119.369 17.8381C119.188 17.8949 118.932 17.9602 118.602 18.0341C118.273 18.1136 117.872 18.1619 117.401 18.179C116.526 18.2131 115.759 18.0966 115.099 17.8295C114.446 17.5625 113.938 17.1477 113.574 16.5852C113.21 16.0227 113.031 15.3125 113.037 14.4545V1.77273Z" fill="#4F46E5"/>
</svg>
